<svg width="164" height="92" viewBox="0 0 164 92" fill="none" xmlns="http://www.w3.org/2000/svg">
<g style="mix-blend-mode:lighten">
<mask id="path-1-outside-1_130_56" maskUnits="userSpaceOnUse" x="0.134766" y="0.769043" width="164" height="91" fill="black">
<rect fill="white" x="0.134766" y="0.769043" width="164" height="91"/>
<path d="M82.0659 10.0002L46.2795 27.0317L10.4931 44.0631C8.68199 44.9251 8.68199 47.5028 10.4931 48.3647L21.9288 53.8072L21.9739 53.7857L24.505 55.0333L82.0659 82.4277C82.725 82.7413 83.4915 82.7355 84.1457 82.4119L153.001 48.3489C154.768 47.4744 154.768 44.9534 153.001 44.0789L84.1457 10.016C83.4915 9.69236 82.725 9.68654 82.0659 10.0002Z"/>
</mask>
<path d="M82.0659 10.0002L46.2795 27.0317L10.4931 44.0631C8.68199 44.9251 8.68199 47.5028 10.4931 48.3647L21.9288 53.8072L21.9739 53.7857L24.505 55.0333L82.0659 82.4277C82.725 82.7413 83.4915 82.7355 84.1457 82.4119L153.001 48.3489C154.768 47.4744 154.768 44.9534 153.001 44.0789L84.1457 10.016C83.4915 9.69236 82.725 9.68654 82.0659 10.0002Z" fill="#1E5A46"/>
<path d="M24.505 55.0333L20.5262 63.106L20.5816 63.1333L20.6374 63.1599L24.505 55.0333ZM21.9739 53.7857L25.9528 45.713L22.0423 43.7857L18.1059 45.6593L21.9739 53.7857ZM21.9288 53.8072L18.0612 61.9338L21.9291 63.7746L25.7968 61.9336L21.9288 53.8072ZM84.1457 82.4119L80.155 74.345L80.1549 74.345L84.1457 82.4119ZM82.0659 82.4277L85.9335 74.3011L85.9335 74.3011L82.0659 82.4277ZM153.001 44.0789L156.991 36.0121L156.991 36.0121L153.001 44.0789ZM153.001 48.3489L156.991 56.4158L156.991 56.4158L153.001 48.3489ZM10.4931 44.0631L6.62549 35.9365L6.62548 35.9365L10.4931 44.0631ZM10.4931 48.3647L6.62548 56.4913L6.62549 56.4913L10.4931 48.3647ZM82.0659 10.0002L85.9335 18.1268L85.9335 18.1268L82.0659 10.0002ZM84.1457 10.016L80.1549 18.0829L80.155 18.0829L84.1457 10.016ZM46.2795 27.0317L42.4119 18.9051L42.4119 18.9051L46.2795 27.0317ZM156.991 36.0121L88.1364 1.94915L80.155 18.0829L149.01 52.1458L156.991 36.0121ZM88.1364 90.4787L156.991 56.4158L149.01 40.282L80.155 74.345L88.1364 90.4787ZM20.6374 63.1599L78.1983 90.5543L85.9335 74.3011L28.3726 46.9067L20.6374 63.1599ZM17.9951 61.8585L20.5262 63.106L28.4839 46.9606L25.9528 45.713L17.9951 61.8585ZM25.7968 61.9336L25.8419 61.9122L18.1059 45.6593L18.0608 45.6808L25.7968 61.9336ZM6.62549 56.4913L18.0612 61.9338L25.7964 45.6806L14.3607 40.2381L6.62549 56.4913ZM80.1549 74.345C81.9727 73.4457 84.1024 73.4296 85.9335 74.3011L78.1983 90.5543C81.3476 92.0531 85.0102 92.0252 88.1364 90.4787L80.1549 74.345ZM149.01 52.1458C144.099 49.7162 144.098 42.7118 149.01 40.282L156.991 56.4158C165.438 52.237 165.438 40.1906 156.991 36.0121L149.01 52.1458ZM6.62548 35.9365C-2.02881 40.0553 -2.02881 52.3726 6.62548 56.4913L14.3607 40.2381C19.3928 42.633 19.3928 49.7949 14.3607 52.1897L6.62548 35.9365ZM85.9335 18.1268C84.1024 18.9983 81.9727 18.9821 80.1549 18.0829L88.1364 1.94915C85.0102 0.402616 81.3476 0.374794 78.1983 1.8736L85.9335 18.1268ZM78.1983 1.8736L42.4119 18.9051L50.1471 35.1583L85.9335 18.1268L78.1983 1.8736ZM42.4119 18.9051L6.62549 35.9365L14.3607 52.1897L50.1471 35.1583L42.4119 18.9051Z" fill="#1EA77F" mask="url(#path-1-outside-1_130_56)"/>
</g>
</svg>
