<svg width="115" height="115" viewBox="0 0 115 115" fill="none" xmlns="http://www.w3.org/2000/svg">
<path d="M57.4957 75.4796C47.5689 75.4796 39.5204 67.4396 39.5204 57.5042C39.5204 47.5859 47.5689 39.5204 57.4957 39.5204C67.4311 39.5204 75.4796 47.5859 75.4796 57.5042C75.4796 67.4396 67.4311 75.4796 57.4957 75.4796ZM111.6 46.566L103.628 45.0702C102.532 44.8577 101.665 44.0673 101.308 43.0219C100.603 40.8632 99.7358 38.7724 98.7499 36.7922C98.223 35.7893 98.2995 34.6079 98.9284 33.6816L103.509 26.9758C104.631 25.3355 104.419 23.1173 102.999 21.698L93.302 12.0006C91.9082 10.5898 89.6645 10.3858 88.0327 11.5076L81.3184 16.0971C80.4006 16.726 79.1937 16.7855 78.2163 16.2501C76.2275 15.2472 74.1453 14.4058 71.995 13.6919C70.9582 13.3434 70.1508 12.4765 69.9553 11.3717L68.434 3.4081C68.0855 1.41933 66.3517 0 64.3629 0H50.6116C48.6483 0 46.9145 1.41933 46.5405 3.4081L45.0447 11.3547C44.8492 12.434 44.0843 13.3434 43.0389 13.6749C40.8547 14.4058 38.73 15.2897 36.6902 16.3096C35.7213 16.8195 34.5654 16.7005 33.673 16.0971L26.9673 11.5076C25.3185 10.3858 23.0918 10.5898 21.681 12.0006L11.9751 21.698C10.5813 23.1173 10.3688 25.3355 11.4907 26.9758L16.0886 33.6985C16.7175 34.6419 16.777 35.8063 16.2671 36.7922C15.2472 38.7979 14.3973 40.8632 13.6919 43.005C13.3349 44.0503 12.468 44.8577 11.3717 45.0702L3.3826 46.566C1.43633 46.94 0 48.6483 0 50.6541V64.3714C0 66.3517 1.43633 68.0855 3.3826 68.4425L11.3717 69.9383C12.468 70.1508 13.3349 70.9582 13.6919 72.0205C14.3973 74.1453 15.2472 76.2106 16.2671 78.1993C16.777 79.2022 16.743 80.3836 16.0886 81.31L11.4907 88.0327C10.3688 89.69 10.5813 91.9082 11.9751 93.302L21.681 103.008C23.0918 104.419 25.3185 104.64 26.9673 103.492L33.6985 98.9114C34.6249 98.2825 35.7978 98.24 36.8007 98.7329C38.7724 99.7358 40.8547 100.603 42.9795 101.291C44.0248 101.665 44.8322 102.515 45.0447 103.611L46.5405 111.617C46.9145 113.589 48.6483 115 50.6116 115H64.3629C66.3517 115 68.0855 113.589 68.434 111.617L69.9553 103.637C70.1508 102.532 70.9327 101.665 71.995 101.317C74.1453 100.603 76.2275 99.7358 78.2163 98.7329C79.1937 98.24 80.3581 98.2825 81.3014 98.9114L88.0327 103.492C89.6645 104.64 91.9082 104.419 93.302 103.008L102.999 93.302C104.419 91.9082 104.631 89.69 103.509 88.0327L98.9114 81.3269C98.2995 80.3836 98.223 79.2022 98.7499 78.2163C99.7358 76.2275 100.603 74.1453 101.308 72.0205C101.665 70.9582 102.532 70.1508 103.628 69.9383L111.6 68.4425C113.564 68.0855 115 66.3517 115 64.3714V50.6541C115 48.6483 113.564 46.94 111.6 46.566Z" fill="#00CC99" fill-opacity="0.8"/>
</svg>
