<svg width="158" height="149" viewBox="0 0 158 149" fill="none" xmlns="http://www.w3.org/2000/svg">
<path d="M150.655 17.572L98.9221 95.964C96.4325 99.7365 91.219 100.335 87.9567 97.2648L65.6021 76.2251C62.3003 73.1175 62.5629 67.7504 66.1353 64.985L140.223 7.63273C146.454 2.80898 155.416 10.3581 150.655 17.572ZM47.4974 89.2641C59.4268 95.996 66.4977 102.462 74.585 114.603C74.1236 120.691 71.2324 127.358 66.6006 132.688C61.5451 138.505 55.0386 142.045 48.4922 142.045C45.907 142.045 44.3982 142.229 43.0862 142.482C42.7859 142.54 42.5565 142.587 42.3683 142.626C41.8213 142.738 41.6214 142.779 41.0375 142.808C39.0578 142.905 34.4406 142.647 19.7582 140.741C12.9616 137.944 10.2002 136.322 8.91582 135.309C8.17688 134.727 8.06263 134.55 7.63844 133.894C7.38928 133.508 7.03318 132.958 6.38075 132.062C6.36381 132.021 6.32002 131.903 6.27988 131.686C6.20697 131.291 6.18098 130.743 6.25604 130.109C6.41703 128.749 6.91726 127.855 7.19067 127.553C7.21076 127.539 7.38322 127.394 7.81106 127.095C8.31283 126.745 8.96581 126.321 9.75978 125.822C10.3361 125.459 11.0631 125.011 11.837 124.534C12.9384 123.856 14.1351 123.118 15.1288 122.485C21.1157 118.67 22.7909 112.159 23.853 108.031C23.9156 107.788 23.9761 107.553 24.0351 107.328C26.5873 97.5806 35.8634 89.8731 47.4974 89.2641Z" stroke="#00CC99" stroke-opacity="0.788235" stroke-width="12"/>
</svg>
