<svg width="474" height="343" viewBox="0 0 474 343" fill="none" xmlns="http://www.w3.org/2000/svg">
<path d="M385.869 33.3472C385.869 37.2938 382.67 40.4931 378.724 40.4931C374.777 40.4931 371.578 37.2938 371.578 33.3472C371.578 29.4007 374.777 26.2014 378.724 26.2014C382.67 26.2014 385.869 29.4007 385.869 33.3472Z" fill="#00CC99" fill-opacity="0.788235"/>
<path d="M409.688 40.4931C413.635 40.4931 416.834 37.2938 416.834 33.3472C416.834 29.4007 413.635 26.2014 409.688 26.2014C405.742 26.2014 402.543 29.4007 402.543 33.3472C402.543 37.2938 405.742 40.4931 409.688 40.4931Z" fill="#00CC99" fill-opacity="0.788235"/>
<path d="M447.799 33.3472C447.799 37.2938 444.6 40.4931 440.653 40.4931C436.707 40.4931 433.508 37.2938 433.508 33.3472C433.508 29.4007 436.707 26.2014 440.653 26.2014C444.6 26.2014 447.799 29.4007 447.799 33.3472Z" fill="#00CC99" fill-opacity="0.788235"/>
<path fill-rule="evenodd" clip-rule="evenodd" d="M21.4372 0C9.59776 0 0 9.5979 0 21.4375V321.562C0 333.402 9.59776 343 21.4372 343H452.563C464.402 343 474 333.402 474 321.562V21.4375C474 9.5979 464.402 0 452.563 0H21.4372ZM9.52764 21.4375C9.52764 14.8599 14.8597 9.52778 21.4372 9.52778H452.563C459.14 9.52778 464.472 14.8599 464.472 21.4375V61.9306H9.52764V21.4375ZM9.52764 71.4583H464.472V321.562C464.472 328.14 459.14 333.472 452.563 333.472H21.4372C14.8597 333.472 9.52764 328.14 9.52764 321.562V71.4583Z" fill="#00CC99" fill-opacity="0.788235"/>
</svg>
